<svg width="83" height="83" viewBox="0 0 83 83" fill="none" xmlns="http://www.w3.org/2000/svg">
<path d="M60.75 3H22.25C11.6185 3 3 11.6185 3 22.25V60.75C3 71.3815 11.6185 80 22.25 80H60.75C71.3815 80 80 71.3815 80 60.75V22.25C80 11.6185 71.3815 3 60.75 3Z" stroke="white" stroke-width="5" stroke-linecap="round" stroke-linejoin="round"/>
<path d="M56.8998 39.0757C57.3749 42.2798 56.8276 45.5522 55.3358 48.4274C53.8439 51.3025 51.4834 53.6341 48.5901 55.0904C45.6967 56.5467 42.4178 57.0536 39.2198 56.539C36.0217 56.0244 33.0674 54.5145 30.7769 52.224C28.4865 49.9336 26.9766 46.9792 26.462 43.7812C25.9474 40.5831 26.4543 37.3043 27.9106 34.4109C29.3669 31.5175 31.6984 29.1571 34.5736 27.6652C37.4488 26.1733 40.7212 25.626 43.9253 26.1012C47.1937 26.5858 50.2195 28.1088 52.5558 30.4451C54.8922 32.7815 56.4151 35.8073 56.8998 39.0757Z" stroke="white" stroke-width="5" stroke-linecap="round" stroke-linejoin="round"/>
<path d="M62.6741 20.3257H62.7127" stroke="white" stroke-width="5" stroke-linecap="round" stroke-linejoin="round"/>
</svg>
