<svg width="91" height="66" viewBox="0 0 91 66" fill="none" xmlns="http://www.w3.org/2000/svg">
<path d="M86.2206 12.3495C85.7617 10.516 84.827 8.836 83.511 7.47929C82.195 6.12259 80.5443 5.13719 78.7256 4.62264C72.0804 3 45.5 3 45.5 3C45.5 3 18.9196 3 12.2745 4.77718C10.4557 5.29173 8.805 6.27712 7.489 7.63383C6.17299 8.99053 5.23832 10.6705 4.77939 12.5041C3.56324 19.2479 2.96835 26.0891 3.00221 32.9416C2.95886 39.8458 3.55378 46.7391 4.77939 53.5337C5.28534 55.3103 6.24095 56.9264 7.55389 58.2258C8.86683 59.5252 10.4927 60.464 12.2745 60.9515C18.9196 62.7287 45.5 62.7287 45.5 62.7287C45.5 62.7287 72.0804 62.7287 78.7256 60.9515C80.5443 60.437 82.195 59.4516 83.511 58.0949C84.827 56.7382 85.7617 55.0582 86.2206 53.2247C87.4274 46.5316 88.0222 39.7426 87.9978 32.9416C88.0411 26.0375 87.4462 19.1441 86.2206 12.3495V12.3495Z" stroke="white" stroke-width="5" stroke-linecap="round" stroke-linejoin="round"/>
<path d="M36.8071 45.576L59.0219 32.9425L36.8071 20.3091V45.576Z" stroke="white" stroke-width="5" stroke-linecap="round" stroke-linejoin="round"/>
</svg>
